<svg width="389" height="342" viewBox="0 0 389 342" fill="none" xmlns="http://www.w3.org/2000/svg">
<path style="mix-blend-mode:multiply" d="M232.052 326.995C231.111 316.553 226.298 306.84 218.559 299.767C210.82 292.693 200.714 288.771 190.23 288.771C179.745 288.771 169.639 292.693 161.9 299.767C154.161 306.84 149.348 316.553 148.407 326.995H232.052Z" fill="url(#paint0_linear_26_1733)"/>
<path d="M335.766 43.5871C339.752 35.8418 350.123 30.3364 362.291 30.3364C374.459 30.3364 384.816 35.8512 388.792 43.5965L335.766 43.5871Z" fill="url(#paint1_linear_26_1733)"/>
<path d="M310.672 43.5871C313.73 39.1263 320.125 36.0583 327.522 36.0583C334.919 36.0583 341.309 39.1357 344.372 43.5871H310.672Z" fill="url(#paint2_linear_26_1733)"/>
<path d="M87.3812 5.23252C88.9529 2.18335 93.0278 0 97.8368 0C102.646 0 106.721 2.18335 108.288 5.23252H87.3812Z" fill="white"/>
<path d="M81.6923 15.3399C82.8969 13.5801 85.4238 12.3661 88.3365 12.3661C91.2492 12.3661 93.7761 13.5801 94.9807 15.3399H81.6923Z" fill="white"/>
<path d="M247.227 221.323L130.135 221.286C128.558 221.286 127.045 221.911 125.928 223.024C124.811 224.137 124.18 225.647 124.174 227.224V271.879C124.18 273.456 124.811 274.966 125.928 276.078C127.046 277.19 128.559 277.814 130.135 277.813H151.625L162.702 297.063L214.609 297.091L225.728 277.846H247.218C247.999 277.847 248.773 277.693 249.495 277.395C250.218 277.096 250.874 276.658 251.427 276.106C251.979 275.553 252.418 274.897 252.717 274.175C253.016 273.453 253.17 272.68 253.17 271.898L253.194 227.29C253.194 225.708 252.565 224.19 251.446 223.071C250.327 221.952 248.81 221.323 247.227 221.323Z" fill="url(#paint3_linear_26_1733)"/>
<path d="M130.135 277.813H151.626L151.87 278.246C157.22 277.693 162.594 277.415 167.972 277.413H249.401C250.509 276.977 251.461 276.218 252.132 275.235C252.803 274.251 253.163 273.089 253.166 271.898L253.189 227.29C253.189 225.711 252.563 224.196 251.448 223.078C250.333 221.959 248.821 221.328 247.241 221.323L130.135 221.286C128.558 221.286 127.045 221.911 125.928 223.024C124.811 224.137 124.18 225.647 124.174 227.224V271.879C124.18 273.456 124.811 274.966 125.928 276.078C127.046 277.19 128.559 277.814 130.135 277.813Z" fill="url(#paint4_linear_26_1733)"/>
<path d="M212.952 51.1912C208.857 51.1912 204.855 49.9769 201.45 47.7019C198.045 45.4269 195.391 42.1934 193.824 38.4102C192.257 34.6269 191.847 30.464 192.646 26.4478C193.445 22.4316 195.417 18.7424 198.312 15.8469C201.208 12.9513 204.897 10.9795 208.913 10.1806C212.929 9.3817 217.092 9.79172 220.876 11.3588C224.659 12.9258 227.892 15.5796 230.167 18.9843C232.442 22.3891 233.657 26.3921 233.657 30.487C233.657 35.9781 231.475 41.2443 227.592 45.1271C223.71 49.0099 218.443 51.1912 212.952 51.1912ZM212.952 13.9283C209.678 13.9302 206.477 14.9029 203.755 16.7235C201.034 18.5441 198.913 21.1309 197.661 24.1568C196.409 27.1826 196.082 30.5117 196.722 33.7232C197.362 36.9346 198.94 39.8842 201.256 42.1991C203.573 44.5139 206.523 46.09 209.735 46.7282C212.947 47.3663 216.276 47.0379 219.301 45.7843C222.326 44.5307 224.911 42.4084 226.731 39.6855C228.55 36.9626 229.52 33.7616 229.52 30.487C229.516 26.0953 227.768 21.8849 224.662 18.7804C221.555 15.6759 217.344 13.9308 212.952 13.9283Z" fill="url(#paint5_linear_26_1733)"/>
<path d="M160.199 51.1912C156.104 51.1912 152.101 49.9769 148.696 47.7019C145.291 45.4269 142.638 42.1934 141.071 38.4102C139.504 34.6269 139.094 30.464 139.893 26.4478C140.691 22.4316 142.663 18.7424 145.559 15.8469C148.454 12.9513 152.143 10.9795 156.16 10.1806C160.176 9.3817 164.339 9.79172 168.122 11.3588C171.905 12.9258 175.139 15.5796 177.414 18.9843C179.689 22.3891 180.903 26.3921 180.903 30.487C180.903 35.9781 178.722 41.2443 174.839 45.1271C170.956 49.0099 165.69 51.1912 160.199 51.1912ZM160.199 13.9283C156.924 13.9264 153.721 14.896 150.997 16.7144C148.273 18.5327 146.149 21.1182 144.894 24.1437C143.639 27.1693 143.31 30.499 143.948 33.7117C144.586 36.9243 146.162 39.8757 148.477 42.1924C150.793 44.5091 153.743 46.0871 156.956 46.7268C160.168 47.3665 163.498 47.0391 166.524 45.7861C169.55 44.5331 172.137 42.4107 173.957 39.6875C175.777 36.9642 176.748 33.7624 176.748 30.487C176.744 26.0981 175 21.89 171.897 18.7857C168.795 15.6814 164.588 13.9345 160.199 13.9283Z" fill="url(#paint6_linear_26_1733)"/>
<path d="M186.602 51.1912C182.507 51.1912 178.504 49.9769 175.099 47.7019C171.694 45.4269 169.04 42.1934 167.473 38.4102C165.906 34.6269 165.496 30.464 166.295 26.4478C167.094 22.4316 169.066 18.7424 171.961 15.8469C174.857 12.9513 178.546 10.9795 182.562 10.1806C186.579 9.3817 190.741 9.79172 194.525 11.3588C198.308 12.9258 201.541 15.5796 203.816 18.9843C206.091 22.3891 207.306 26.3921 207.306 30.487C207.306 35.9781 205.124 41.2443 201.242 45.1271C197.359 49.0099 192.093 51.1912 186.602 51.1912ZM186.602 13.9283C183.327 13.9283 180.125 14.8995 177.402 16.7189C174.679 18.5384 172.557 21.1246 171.303 24.1503C170.05 27.176 169.722 30.5054 170.361 33.7174C171 36.9295 172.577 39.8799 174.893 42.1957C177.209 44.5115 180.159 46.0886 183.371 46.7275C186.583 47.3664 189.913 47.0385 192.938 45.7852C195.964 44.5319 198.55 42.4096 200.37 39.6865C202.189 36.9634 203.16 33.762 203.16 30.487C203.155 26.0969 201.409 21.888 198.305 18.7837C195.2 15.6795 190.992 13.9333 186.602 13.9283Z" fill="url(#paint7_linear_26_1733)"/>
<path d="M250.432 32.1763L229.958 217.841H235.167L255.904 29.7388L256.243 26.7226L231.483 27.899L231.723 33.075L250.432 32.1763Z" fill="url(#paint8_linear_26_1733)"/>
<path d="M143.203 217.841L122.738 32.1763L141.443 33.075L141.687 27.899L116.932 26.7226L138.003 217.841H143.203Z" fill="url(#paint9_linear_26_1733)"/>
<path d="M269.451 182.889C259.81 180.066 253.631 174.673 247.957 168.998C248.818 153.197 254.61 140.883 256.761 125.406C257.306 117.633 248.07 105.596 241.929 118.645C237.077 131.251 235.252 180 235.398 180.07C247.594 184.093 249.985 185.063 267.762 188.07C268.948 184.94 269.978 183.039 269.451 182.889Z" fill="url(#paint10_linear_26_1733)"/>
<path fill-rule="evenodd" clip-rule="evenodd" d="M47.4792 122.993C42.5899 117.99 34.5004 114.716 25.3486 114.716C13.7118 114.716 3.80675 119.99 0 127.42L42.4954 127.42L50.7112 127.42L74.7187 127.42C74.7187 127.42 74.7187 127.42 74.7187 127.42H90.6092C88.7787 124.743 84.9626 122.908 80.5347 122.908C77.5051 122.908 74.7641 123.767 72.7488 125.167C69.4604 122.147 64.3467 120.212 58.6118 120.212C54.4103 120.212 50.5423 121.25 47.4792 122.993Z" fill="url(#paint11_linear_26_1733)"/>
<path d="M263.273 72.4883C257.085 75.4433 253.575 75.0951 247.105 75.8998C246.427 75.9845 239.044 81.2923 238.381 81.2546L239.322 90.9197L239.044 102.801L240.065 109.417L249.947 113.741C249.947 113.741 250.771 100.237 251.947 100.721C253.123 101.206 263.381 107.408 263.24 104.627C263.099 101.846 264.482 71.9142 263.273 72.4883Z" fill="#E3AD91"/>
<path d="M258.497 80.7465C256.723 83.1839 257.556 85.452 258.967 87.8942C259.681 89.034 260.274 90.2451 260.737 91.508C261.207 92.9196 261.546 91.2398 262.322 91.0374C261.659 91.2068 261.005 91.3997 260.351 91.6162C258.469 92.2279 257.368 94.7407 260.167 93.8278C261.744 93.3149 267.282 95.3806 265.301 91.5409C264.642 90.261 263.598 86.6566 263.805 85.2732C264.087 83.391 260.548 82.4499 261.88 80.6147C263.292 78.6855 259.24 79.7348 258.511 80.7465" fill="#E3AD91"/>
<path d="M263.104 101.648C263.104 101.738 262.76 104.599 262.77 104.702C261.231 104.109 259.984 100.938 258.309 100.693C258.177 98.378 258.031 96.0582 257.904 93.7384C259.565 93.903 259.989 92.0961 261.626 91.8185C260.619 89.5222 262.798 93.6536 262.774 93.7007C262.37 94.2418 263.715 95.5547 264.12 96.0911C264.525 96.6275 263.744 96.7969 263.344 97.4745C262.944 98.1521 264.167 98.9521 264.167 99.3567C264.167 99.7614 262.962 100.303 263.104 101.648Z" fill="#E3AD91"/>
<path d="M241.722 86.3319C242.315 83.0757 245.449 82.6005 246.427 85.5837C246.427 85.5837 246.653 88.1765 246.484 88.9058C247.632 87.1789 249.444 85.2214 251.255 84.2333C252.541 82.7109 253.543 80.9706 254.215 79.0949C254.215 79.0949 263.452 78.469 264.064 78.1538C264.675 77.8385 269.183 73.9188 269.108 72.7707C269.108 72.7707 265.918 74.9023 264.873 74.4317L266.783 72.3989C266.783 72.3989 250.154 67.5523 249.373 67.2699C248.592 66.9876 239.27 70.0932 237.609 71.4766C235.948 72.8601 235.591 79.5795 236.847 83.5933C237.496 85.6732 239.256 97.1452 239.058 97.7098C238.786 98.4721 242.639 94.209 243.675 91.6539C243.849 91.2774 241.134 89.5787 241.722 86.3319Z" fill="#1F3465"/>
<path d="M246.559 89.3246L245.999 88.68L246.07 83.8239L248.484 81.697L246.559 89.3246Z" fill="#1F3465"/>
<path d="M263.494 97.2534C262.635 97.7669 261.704 98.1506 260.732 98.3921C260.732 98.3921 261.645 98.6838 263.452 98.218C263.484 97.8975 263.498 97.5754 263.494 97.2534Z" fill="#BEE5EB"/>
<path d="M251.679 100.919C251.288 101.517 251.312 101.597 251.312 101.597C251.312 101.597 247.481 97.9262 246.982 96.4675C246.484 95.0088 246.554 90.9621 246.554 90.9621C246.554 90.9621 247.213 95.2723 248.272 96.6605C249.331 98.0486 251.834 100.712 251.834 100.712C251.778 100.778 251.726 100.847 251.679 100.919Z" fill="#BEE5EB"/>
<path d="M249.345 107.935C249.345 107.935 250.474 106.495 250.469 106.49C249.933 109.459 245.858 111.883 243.138 114.057C242.432 110.669 240.414 104.914 239.124 101.526C232.781 126.465 201.546 196.158 201.33 198.351L223.916 203.184C224.034 202.793 229.483 201.918 229.417 201.509C229.083 199.49 228.029 186.714 235.623 166.462C253.82 125.213 253.203 111.662 249.345 107.935Z" fill="url(#paint12_linear_26_1733)"/>
<path d="M280.796 222.716C289.073 208.553 299.882 246.244 301.176 239.708C301.176 239.708 292.607 245.354 292.118 245.533C291.628 245.712 235.181 288.226 233.6 288.033C232.019 287.841 228.518 281.662 228.518 281.662C228.518 281.662 268.618 234.729 269.602 234.344C270.585 233.958 280.42 223.366 280.796 222.716Z" fill="url(#paint13_linear_26_1733)"/>
<path d="M312.949 206.459C312.949 198.285 306.065 191.655 297.576 191.655H211.032C202.563 191.655 195.664 198.285 195.664 206.459C195.664 214.632 202.544 221.262 211.032 221.262H288.965C291.191 237.732 300.489 298.136 300.489 298.136C300.489 298.136 307.18 298.856 308.295 297.698C309.41 296.541 312.949 207.974 312.949 206.459Z" fill="url(#paint14_linear_26_1733)"/>
<path d="M182.983 208.972L197.721 164.443C206.078 141.509 201.767 132.968 204.652 123.675C212.519 117.087 220.651 108.782 211.578 101.719C216.712 102.114 232.372 98.2886 238.932 101.013C239.557 102.632 248.046 114.598 222.086 160.693C216.472 176.005 207.616 200.262 207.616 200.262L182.983 208.972Z" fill="url(#paint15_linear_26_1733)"/>
<path d="M299.896 295.087L305.726 294.988H309.316C311.806 296.597 315.594 297.035 318.549 297.637C321.504 298.24 322.784 298.291 326.077 299.016C326.202 299.022 326.323 299.064 326.425 299.138C326.526 299.211 326.603 299.313 326.647 299.43C326.692 299.547 326.7 299.675 326.673 299.797C326.645 299.919 326.582 300.03 326.491 300.117C325.108 301.999 321.626 301.971 319.509 302.032C317.391 302.093 313.104 301.717 311.01 301.614C306.305 301.383 303.891 300.489 303.275 301.322C302.865 301.882 297.948 301.477 298.183 300.465C298.762 297.882 299.698 296.405 299.896 295.087Z" fill="#16244C"/>
<g style="mix-blend-mode:multiply" opacity="0.39">
<path d="M310.262 336.5C309.467 320.468 308.705 307.491 308.295 307.067C307.18 305.91 300.489 306.63 300.489 306.63C300.489 306.63 298.376 320.351 295.924 336.5H310.262Z" fill="url(#paint16_linear_26_1733)"/>
<path d="M299.896 309.669L305.726 309.763H309.316C311.806 308.154 314.074 308.596 317.033 307.994C319.993 307.392 322.76 307.185 326.073 306.455C326.198 306.451 326.319 306.41 326.421 306.337C326.522 306.264 326.6 306.162 326.645 306.045C326.689 305.928 326.697 305.8 326.669 305.678C326.641 305.556 326.578 305.445 326.487 305.359C325.103 303.477 321.621 303.505 319.504 303.444C317.386 303.383 310.347 303.35 307.491 303.044C304.15 302.686 304.423 303.143 303.867 302.804C303.646 302.663 303.576 302.093 303.279 302.056C301.576 301.835 298.103 301.308 298.315 302.319C298.898 304.907 299.698 308.352 299.896 309.669Z" fill="#16244C"/>
</g>
<path d="M230.617 278.557L235.548 282.467L238.437 284.754C239.487 287.723 242.272 290.509 244.291 292.908C246.31 295.308 247.293 296.155 249.528 298.889C249.625 298.975 249.697 299.086 249.734 299.21C249.771 299.335 249.773 299.467 249.739 299.592C249.706 299.717 249.638 299.83 249.543 299.919C249.448 300.008 249.331 300.068 249.204 300.094C246.983 300.823 244.202 298.578 242.465 297.27C240.729 295.962 237.496 292.922 235.878 291.501C232.217 288.288 230.819 285.996 229.831 286.325C229.168 286.546 225.455 283.06 226.241 282.344C228.241 280.509 229.685 279.563 230.617 278.557Z" fill="#16244C"/>
<g style="mix-blend-mode:multiply" opacity="0.38">
<path d="M265.503 338.716C250.168 327.357 233.506 312.93 232.635 313.034C231.04 313.231 227.553 319.4 227.553 319.4C232.09 326.088 236.981 332.528 242.206 338.693L265.503 338.716Z" fill="url(#paint17_linear_26_1733)"/>
<path d="M229.652 322.506L234.598 318.596C234.626 318.596 237.459 316.332 237.482 316.309C238.536 313.34 241.322 310.554 243.34 308.154C245.359 305.754 246.338 304.912 248.578 302.173C248.675 302.088 248.746 301.976 248.783 301.852C248.821 301.728 248.823 301.596 248.789 301.47C248.755 301.345 248.687 301.232 248.592 301.143C248.498 301.055 248.38 300.994 248.253 300.969C246.032 300.24 243.251 302.484 241.51 303.792C239.769 305.1 236.546 308.145 234.922 309.566C231.257 312.775 229.864 315.067 228.876 314.742C228.212 314.521 224.5 318.007 225.281 318.723C227.271 320.558 228.716 321.499 229.652 322.506Z" fill="#16244C"/>
</g>
<path d="M251.326 112.212L250.752 107.036L250.545 105.93C250.258 106.656 249.853 107.329 249.345 107.921C248.634 108.65 243.359 113.892 243.359 113.892C243.359 113.892 241.063 101.502 238.127 99.8132C238.127 99.8132 237.529 101.997 236.32 102.345C235.111 102.693 234.052 102.693 234.791 102.815C235.529 102.938 237.614 104.011 238.16 103.248C238.706 102.486 241.642 107.144 242.705 115.859L249.434 108.98L251.241 113.139L252.879 112.579L251.326 112.212Z" fill="url(#paint18_linear_26_1733)"/>
<path d="M247.199 111.012C247.199 111.012 245.938 108.98 244.804 108.984C243.67 108.989 241.642 111.097 241.642 111.097L243.176 116.659C243.176 116.659 234.428 130.926 220.481 142.798C216.617 146.063 212.497 149.014 208.162 151.621L206.793 161.469L213.973 162.618C213.973 162.618 224.914 154.703 229.624 148.308C241.548 132.107 245.209 117.591 245.053 117.398C244.818 117.111 248.451 112.763 247.185 111.008" fill="url(#paint19_linear_26_1733)"/>
<path fill-rule="evenodd" clip-rule="evenodd" d="M325.908 144.967C325.706 144.85 324.186 146.059 323.974 146.002L298.795 188.681H302.206C302.559 188.187 302.884 187.673 303.18 187.143L326.393 147.456C326.924 146.562 326.953 145.579 325.908 144.967Z" fill="url(#paint20_linear_26_1733)"/>
<path fill-rule="evenodd" clip-rule="evenodd" d="M252.479 188.71C252.422 188.926 252.389 190.535 252.389 190.771C252.389 192.018 253.217 192.497 254.234 192.497H298.56C299.576 192.497 300.399 192.027 300.399 190.771C300.399 190.535 300.366 188.926 300.315 188.71H252.479Z" fill="#1F3465"/>
<path fill-rule="evenodd" clip-rule="evenodd" d="M300.385 188.658C300.484 189.204 301.858 190.046 302.065 190.164C303.138 190.794 303.995 190.277 304.54 189.345L328.388 148.581C328.934 147.64 328.962 146.647 327.889 146.017C327.682 145.899 326.275 145.113 326.115 144.666L300.385 188.658Z" fill="#1F3465"/>
<path d="M289.779 188.009L290.956 187.242L290.226 186.86L282.806 184.381C282.806 184.381 280.669 182.823 279.775 183.19L271.705 183.736C271.705 183.736 268.656 183.072 267 182.498C266.957 182.498 266.713 182.376 266.365 183.872L265.861 188.441C265.861 188.441 288.655 188.912 289.779 188.009Z" fill="#E3AD91"/>
<path d="M268.844 182.16C260.788 182.258 245.359 182.465 237.689 174.193C234.635 170.899 226.33 123.811 221.253 107.29C218.175 99.2439 202.243 98.7168 202.177 114.668C203.202 129.576 225.187 187.971 225.37 187.971C227.45 191.434 257.979 188.333 268.002 188.578L268.844 182.16Z" fill="url(#paint21_linear_26_1733)"/>
<g style="mix-blend-mode:screen" opacity="0.2">
<path opacity="0.3" d="M275.065 147.546C275.065 213.089 221.935 266.237 156.392 266.237C90.8492 266.237 37.6864 213.089 37.6864 147.546C37.6864 82.0028 90.8304 28.8777 156.373 28.8777C221.916 28.8777 275.065 82.0075 275.065 147.546Z" fill="white"/>
<path d="M221.455 147.546C221.456 160.418 217.64 173.001 210.489 183.705C203.339 194.408 193.174 202.75 181.282 207.677C169.39 212.604 156.304 213.893 143.679 211.382C131.054 208.872 119.458 202.674 110.355 193.572C101.253 184.47 95.054 172.874 92.5424 160.249C90.0308 147.624 91.3194 134.538 96.2451 122.646C101.171 110.753 109.513 100.589 120.215 93.4373C130.918 86.2858 143.501 82.4687 156.373 82.4687C173.632 82.4724 190.183 89.3298 202.387 101.533C214.592 113.737 221.45 130.287 221.455 147.546Z" fill="white"/>
</g>
<path d="M137.97 189.853L134.342 186.503C137.109 184.936 137.043 183.966 136.77 181.647C135.439 167.629 126.573 151.197 124.108 137.509C123.341 130.615 131.128 119.586 137.057 130.968C141.819 142.003 145.179 185.293 145.057 185.364C142.933 187.208 140.544 188.721 137.97 189.853Z" fill="url(#paint22_linear_26_1733)"/>
<path d="M132.427 109.191C132.427 108.989 132.38 108.796 132.352 108.603C132.574 107.16 132.477 105.686 132.069 104.283C131.392 101.931 130.573 99.5779 130.041 97.197C129.571 95.1406 127.486 93.2396 125.689 92.3644C125.444 92.242 125.19 92.1385 124.936 92.0397C125.576 90.5704 126.364 89.1703 127.289 87.8612C128.23 87.3907 136.85 84.4309 140.958 88.3694C140.824 89.6348 140.879 90.9131 141.123 92.1621C141.857 95.9876 145.922 90.8492 146.746 94.656C147.155 96.5382 149.677 95.8653 150.073 97.7757C150.266 98.7168 145.522 106.523 146.694 109.276C146.576 108.702 150.736 114.617 150.793 114.876C151.329 118 147.598 128.832 147.969 132.037C146.087 135.213 142.12 131.952 141.951 131.514C141.697 130.874 139.989 132.107 140.233 125.703C140.464 119.543 138.121 110.415 136.22 112.527C134.319 114.64 131.891 113.374 130.324 112.998C132.385 111.238 132.648 112.033 132.427 109.191Z" fill="#E6AF92"/>
<path d="M125.317 101.342C125.962 99.8932 125.905 98.3686 125.317 96.2464C124.992 95.0889 123.971 91.4045 124.498 89.1552C130.964 86.9013 131.797 88.6141 134.145 93.9031C135.382 96.6982 139.937 111.464 139.791 111.586C139.419 111.746 131.971 117.256 129.59 116C129.274 115.835 128.983 111.695 128.112 111.506C127.242 111.318 127.147 110.843 127.213 110.17C127.279 109.497 127.439 109.629 126.766 109.427C126.093 109.224 126.428 108.66 126.296 107.544C126.164 106.429 124.748 106.279 123.444 105.573C122.141 104.867 123.435 105.554 125.317 101.342Z" fill="#E6AF92"/>
<path d="M126.555 109.248C127.57 109.387 128.601 109.375 129.613 109.21C129.613 109.21 128.874 109.855 126.983 110.151C126.819 109.86 126.676 109.559 126.555 109.248Z" fill="#BEE5EB"/>
<path d="M137.829 113.125C138.196 113.666 138.172 113.727 138.172 113.727C138.172 113.727 140.191 113.53 142.116 110.838C142.836 109.831 143.363 105.836 143.363 105.836C143.363 105.836 142.37 109.06 141.429 110.189C140.448 111.419 139.159 112.367 137.693 112.937C137.693 112.937 137.749 113.012 137.829 113.125Z" fill="#BEE5EB"/>
<path fill-rule="evenodd" clip-rule="evenodd" d="M129.848 85.7438C137.721 77.7068 146.073 86.6849 149.762 95.0654C149.462 95.7167 149.256 96.4075 149.15 97.117C148.934 99.0556 126.202 94.016 124.903 89.3952C123.256 89.6023 122.458 90.5434 122.508 92.2185C120.527 88.6847 125.402 85.7908 129.848 85.7438Z" fill="#203365"/>
<path d="M171.073 202.883L135.264 196.615C146.035 186.027 142.793 172.264 141.415 168.659C135.66 153.79 125.646 133.909 127.82 129.086C130.065 124.108 134.253 125.124 139.029 123.025C139.156 126.319 143.109 130.507 145.715 133.26C147.056 129.533 149.357 120.696 151.235 117.341C161.117 122.847 163.94 121.92 173.158 124.701C178.677 126.366 181.553 124.785 175.097 153.875C169.935 177.939 168.683 181.383 171.073 202.883Z" fill="url(#paint23_linear_26_1733)"/>
<path d="M151.687 170.452L150.642 170.56C148.332 155.893 139.198 128.94 139.034 123.228C139.034 123.228 139.41 123.341 139.415 123.341C140.633 126.536 141.142 127.618 145.132 133.222C147.908 124.065 150.473 121.237 152.383 117.784C154.693 138.921 148.261 143.16 151.687 170.452Z" fill="url(#paint24_linear_26_1733)"/>
<path d="M137.707 128.54L139.029 123.035L139.862 121.087C140.01 121.893 140.283 122.671 140.671 123.392C141.222 124.272 144.873 131.392 144.873 131.392C144.873 131.392 148.91 118.325 151.931 116.88C151.931 116.88 152.148 119.317 153.225 119.849C154.303 120.381 155.282 120.517 154.576 120.569C153.87 120.621 151.752 121.51 151.367 120.597C150.981 119.685 147.527 124.362 145.198 133.618L139.975 125.317L137.655 129.552L136.21 128.738L137.707 128.54Z" fill="url(#paint25_linear_26_1733)"/>
<path d="M145.118 80.4688C157.136 85.6731 159.037 101.272 159.338 104.74C159.484 119.435 146.478 127.529 139.377 124.032C148.647 113.563 144.671 105.069 144.671 105.069C147.494 105.639 147.494 101.441 146.318 98.4815C145.141 95.5217 144.243 99.3709 144.243 99.3709C144.167 100.557 142.685 100.081 142.685 100.081C142.294 97.6157 140.064 92.5196 135.834 91.0374C132.653 89.9222 136.238 89.2964 134.065 87.273C131.891 85.2496 127.863 86.106 127.863 86.106C128.616 82.7981 137.373 77.1091 145.118 80.4688Z" fill="#203365"/>
<path fill-rule="evenodd" clip-rule="evenodd" d="M99.4979 309.41C95.5829 309.698 96.8252 305.044 96.6417 301.755C93.7901 302.493 91.9879 306.159 88.4306 308.041C86.3978 309.076 76.2245 310.107 74.5493 306.206C81.6076 305.063 82.9251 305.293 84.0827 304.489C91.8091 301.134 95.07 293.976 100.514 288.438C110.673 293.374 98.9897 300.903 99.4979 309.41Z" fill="#203365"/>
<path d="M83.2875 303.345C88.8682 296.922 91.5268 288.89 91.0092 284.053H98.138C98.138 284.994 100.528 288.415 100.528 288.415C100.528 288.415 92.962 298.593 87.2589 303.345C83.5651 306.423 81.2688 305.152 81.2688 305.152C81.2688 305.152 81.7111 305.138 83.2875 303.345Z" fill="url(#paint26_linear_26_1733)"/>
<path fill-rule="evenodd" clip-rule="evenodd" d="M175.308 283.493C172.866 286.565 170.288 282.495 167.747 280.401C166.335 282.999 167.831 286.81 166.805 290.701C166.189 292.899 160.053 301.054 156.049 299.665C159.987 293.699 161.051 292.885 161.248 291.487C164.02 283.535 160.966 276.288 160.59 268.529C171.073 264.412 168.721 278.114 175.308 283.493Z" fill="#203365"/>
<path d="M159.855 291.304C158.914 282.834 154.816 275.446 150.915 272.562L155.738 267.334C156.439 268.002 160.571 268.534 160.571 268.534C160.571 268.534 162.923 280.999 162.547 288.41C162.307 293.214 159.813 294.056 159.813 294.056C159.813 294.056 160.119 293.689 159.855 291.304Z" fill="url(#paint27_linear_26_1733)"/>
<path d="M114.777 220.288C106.702 207.273 99.8461 246.042 98.585 240.051C98.585 240.051 106.942 245.227 107.417 245.402C107.893 245.576 150.774 274.331 152.331 274.152C153.889 273.973 157.286 268.303 157.286 268.303C157.286 268.303 130.338 235.497 129.378 235.115C128.418 234.734 115.144 220.876 114.777 220.288Z" fill="url(#paint28_linear_26_1733)"/>
<path d="M173.619 206.125C172.617 203.245 167.234 197.236 167.191 195.114L100.053 194.643C91.7762 194.643 85.0614 198.314 85.0614 205.828C85.0614 206.967 89.4516 265.588 90.8727 285.888L98.4015 286.443C100.975 270.604 108.151 231.05 109.822 219.446L159.78 221.94C168.057 221.94 174.772 218.326 174.772 210.816C174.797 209.179 174.4 207.563 173.619 206.125Z" fill="url(#paint29_linear_26_1733)"/>
<path fill-rule="evenodd" clip-rule="evenodd" d="M71.3166 150.383C71.5049 150.275 72.9353 151.414 73.133 151.362L96.8299 191.528H93.6207C93.2888 191.062 92.9825 190.578 92.7032 190.079L70.8602 152.736C70.3755 151.875 70.3379 150.962 71.3166 150.383Z" fill="url(#paint30_linear_26_1733)"/>
<path fill-rule="evenodd" clip-rule="evenodd" d="M140.431 191.556C140.483 191.754 140.511 193.269 140.511 193.495C140.511 194.671 139.735 195.119 138.779 195.119H97.0604C96.1193 195.119 95.3335 194.648 95.3335 193.495C95.3335 193.269 95.3335 191.754 95.4088 191.556H140.431Z" fill="#1E3565"/>
<path fill-rule="evenodd" clip-rule="evenodd" d="M95.3477 191.505C95.2489 192.018 93.9596 192.808 93.7619 192.916C92.7502 193.504 91.9456 193.02 91.4327 192.14L68.9921 153.781C68.4792 152.901 68.4463 151.96 69.4627 151.367C69.6556 151.254 70.9731 150.515 71.1331 150.096L95.3477 191.505Z" fill="#1E3565"/>
<path d="M113.901 190.921L112.96 190.3L113.549 189.994L119.529 187.994C119.529 187.994 121.251 186.738 121.976 187.053L128.474 187.486C128.474 187.486 130.935 186.95 132.272 186.489C132.305 186.489 132.502 186.39 132.78 187.594L133.185 191.283C133.185 191.283 114.814 191.66 113.901 190.921Z" fill="#E3AD90"/>
<path d="M129.726 186.559C151.301 181.633 160.585 178.329 160.914 176.376C161.521 172.81 162.674 143.311 166.763 129.994C169.243 123.51 182.084 123.087 182.136 135.947C181.308 147.955 171.718 186.437 171.572 186.442C169.897 189.227 138.488 191.524 130.408 191.716L129.726 186.559Z" fill="url(#paint31_linear_26_1733)"/>
<path d="M160.754 202.991L178.979 204.327C176.273 202.12 173.937 199.494 172.062 196.549C170.542 194.093 169.266 188.606 169.266 188.606L150.035 193.095L160.754 202.991Z" fill="url(#paint32_linear_26_1733)"/>
<g style="mix-blend-mode:multiply" opacity="0.38">
<path fill-rule="evenodd" clip-rule="evenodd" d="M175.308 317.179C172.866 314.107 170.288 318.177 167.747 320.271C166.335 317.673 167.831 313.862 166.805 309.97C166.189 307.773 160.053 299.618 156.049 301.03C159.987 307.001 161.051 307.811 161.248 309.203C164.02 317.16 160.966 324.412 160.59 332.166C171.073 336.265 168.721 322.548 175.308 317.179Z" fill="#203365"/>
<path d="M159.855 309.373C158.914 317.843 154.816 325.23 150.915 328.115L155.738 333.343C156.439 332.675 160.571 332.143 160.571 332.143C160.571 332.143 162.923 319.683 162.547 312.271C162.307 307.462 159.813 306.625 159.813 306.625C159.813 306.625 160.119 306.992 159.855 309.373Z" fill="url(#paint33_linear_26_1733)"/>
<path d="M149.362 341.991C153.837 336.58 157.286 332.373 157.286 332.373C157.286 332.373 153.884 326.727 152.331 326.529C151.508 326.43 139.156 334.416 127.609 341.991H149.362Z" fill="url(#paint34_linear_26_1733)"/>
</g>
<g style="mix-blend-mode:multiply" opacity="0.38">
<path fill-rule="evenodd" clip-rule="evenodd" d="M99.4979 310.121C95.5829 309.834 96.8252 314.488 96.6417 317.777C93.7901 317.038 91.9879 313.373 88.4306 311.49C86.3978 310.455 76.2245 309.425 74.5493 313.326C81.6076 314.474 82.9251 314.243 84.0827 315.043C91.8091 318.398 95.07 325.555 100.514 331.094C110.673 326.157 98.9897 318.614 99.4979 310.121Z" fill="#203365"/>
<path d="M83.2875 316.191C88.8683 322.609 91.5269 330.642 91.0093 335.484H98.1381C98.1381 334.514 100.528 331.117 100.528 331.117C100.528 331.117 92.962 320.939 87.259 316.186C83.5652 313.109 81.2689 314.38 81.2689 314.38C81.2689 314.38 81.7112 314.38 83.2875 316.191Z" fill="url(#paint35_linear_26_1733)"/>
<path d="M99.9074 341.991C99.3192 338.58 98.8063 335.535 98.4063 333.051L90.8775 333.602C90.7128 335.926 90.5105 338.778 90.2799 341.968L99.9074 341.991Z" fill="url(#paint36_linear_26_1733)"/>
</g>
<defs>
<linearGradient id="paint0_linear_26_1733" x1="190.23" y1="293.144" x2="190.23" y2="344.019" gradientUnits="userSpaceOnUse">
<stop stop-color="#96CFD9"/>
<stop offset="0.61" stop-color="white"/>
</linearGradient>
<linearGradient id="paint1_linear_26_1733" x1="362.279" y1="30.3364" x2="362.279" y2="43.5965" gradientUnits="userSpaceOnUse">
<stop stop-color="white"/>
<stop offset="1" stop-color="white" stop-opacity="0"/>
</linearGradient>
<linearGradient id="paint2_linear_26_1733" x1="327.522" y1="36.0583" x2="327.522" y2="43.5871" gradientUnits="userSpaceOnUse">
<stop stop-color="white"/>
<stop offset="1" stop-color="white" stop-opacity="0"/>
</linearGradient>
<linearGradient id="paint3_linear_26_1733" x1="188.667" y1="222.472" x2="188.667" y2="298.795" gradientUnits="userSpaceOnUse">
<stop stop-color="#F1B330"/>
<stop offset="0.04" stop-color="#F2B731"/>
<stop offset="0.24" stop-color="#F6CA33"/>
<stop offset="0.45" stop-color="#F8D435"/>
<stop offset="0.68" stop-color="#F9D835"/>
<stop offset="0.72" stop-color="#F6CC33"/>
<stop offset="0.78" stop-color="#F3BE31"/>
<stop offset="0.86" stop-color="#F2B530"/>
<stop offset="1" stop-color="#F1B330"/>
</linearGradient>
<linearGradient id="paint4_linear_26_1733" x1="188.667" y1="222.472" x2="188.667" y2="298.8" gradientUnits="userSpaceOnUse">
<stop stop-color="#F1B330"/>
<stop offset="0.06" stop-color="#F2B731"/>
<stop offset="0.35" stop-color="#F6CA33"/>
<stop offset="0.66" stop-color="#F8D435"/>
<stop offset="1" stop-color="#F9D835"/>
</linearGradient>
<linearGradient id="paint5_linear_26_1733" x1="212.952" y1="9.78275" x2="212.952" y2="51.1912" gradientUnits="userSpaceOnUse">
<stop stop-color="white"/>
<stop offset="1" stop-color="white" stop-opacity="0"/>
</linearGradient>
<linearGradient id="paint6_linear_26_1733" x1="160.199" y1="9.78275" x2="160.199" y2="51.1912" gradientUnits="userSpaceOnUse">
<stop stop-color="white"/>
<stop offset="1" stop-color="white" stop-opacity="0"/>
</linearGradient>
<linearGradient id="paint7_linear_26_1733" x1="186.602" y1="9.78275" x2="186.602" y2="51.1912" gradientUnits="userSpaceOnUse">
<stop stop-color="white"/>
<stop offset="1" stop-color="white" stop-opacity="0"/>
</linearGradient>
<linearGradient id="paint8_linear_26_1733" x1="243.101" y1="26.7226" x2="243.101" y2="217.841" gradientUnits="userSpaceOnUse">
<stop stop-color="white"/>
<stop offset="1" stop-color="white" stop-opacity="0"/>
</linearGradient>
<linearGradient id="paint9_linear_26_1733" x1="130.067" y1="26.7226" x2="130.067" y2="217.841" gradientUnits="userSpaceOnUse">
<stop stop-color="white"/>
<stop offset="1" stop-color="white" stop-opacity="0"/>
</linearGradient>
<linearGradient id="paint10_linear_26_1733" x1="239.479" y1="140.998" x2="275.69" y2="173.252" gradientUnits="userSpaceOnUse">
<stop stop-color="#2980BA"/>
<stop offset="1" stop-color="#9CBAD8"/>
</linearGradient>
<linearGradient id="paint11_linear_26_1733" x1="45.3046" y1="92.5" x2="45.3046" y2="127" gradientUnits="userSpaceOnUse">
<stop stop-color="white"/>
<stop offset="1" stop-color="white" stop-opacity="0"/>
</linearGradient>
<linearGradient id="paint12_linear_26_1733" x1="265.612" y1="118.502" x2="207.552" y2="179.777" gradientUnits="userSpaceOnUse">
<stop stop-color="#96CFD9"/>
<stop offset="0.78" stop-color="#D6EEF3"/>
<stop offset="1" stop-color="#96CFD9"/>
</linearGradient>
<linearGradient id="paint13_linear_26_1733" x1="288.829" y1="233.29" x2="223.85" y2="297.633" gradientUnits="userSpaceOnUse">
<stop stop-color="#2980BA"/>
<stop offset="1" stop-color="#9CBAD8"/>
</linearGradient>
<linearGradient id="paint14_linear_26_1733" x1="195.664" y1="245.006" x2="312.949" y2="245.006" gradientUnits="userSpaceOnUse">
<stop stop-color="#2980BA"/>
<stop offset="1" stop-color="#9CBAD8"/>
</linearGradient>
<linearGradient id="paint15_linear_26_1733" x1="233.318" y1="157.046" x2="194.412" y2="149.9" gradientUnits="userSpaceOnUse">
<stop stop-color="#2980BA"/>
<stop offset="1" stop-color="#D7EEF1"/>
</linearGradient>
<linearGradient id="paint16_linear_26_1733" x1="303.096" y1="307.975" x2="303.096" y2="368.389" gradientUnits="userSpaceOnUse">
<stop stop-color="#2980BA"/>
<stop offset="0.53" stop-color="white"/>
</linearGradient>
<linearGradient id="paint17_linear_26_1733" x1="246.526" y1="314.398" x2="246.526" y2="347.774" gradientUnits="userSpaceOnUse">
<stop stop-color="#2980BA"/>
<stop offset="0.64" stop-color="white"/>
</linearGradient>
<linearGradient id="paint18_linear_26_1733" x1="233.849" y1="106.676" x2="253.335" y2="110.22" gradientUnits="userSpaceOnUse">
<stop stop-color="#D6EEF3"/>
<stop offset="0.28" stop-color="#D4EDF2"/>
<stop offset="0.38" stop-color="#CDEAEF"/>
<stop offset="0.46" stop-color="#C1E4EB"/>
<stop offset="0.52" stop-color="#B0DCE4"/>
<stop offset="0.57" stop-color="#9AD1DB"/>
<stop offset="0.58" stop-color="#96CFD9"/>
<stop offset="0.59" stop-color="#98D0DA"/>
<stop offset="0.69" stop-color="#B3DDE5"/>
<stop offset="0.79" stop-color="#C7E7ED"/>
<stop offset="0.89" stop-color="#D2ECF1"/>
<stop offset="1" stop-color="#D6EEF3"/>
</linearGradient>
<linearGradient id="paint19_linear_26_1733" x1="249.14" y1="117.086" x2="201.623" y2="162.783" gradientUnits="userSpaceOnUse">
<stop stop-color="#F0B22E"/>
<stop offset="0.01" stop-color="#F1B52F"/>
<stop offset="0.06" stop-color="#F4C833"/>
<stop offset="0.11" stop-color="#F5D235"/>
<stop offset="0.17" stop-color="#F6D636"/>
<stop offset="1" stop-color="#F0B22E"/>
</linearGradient>
<linearGradient id="paint20_linear_26_1733" x1="298.654" y1="166.82" x2="326.755" y2="166.82" gradientUnits="userSpaceOnUse">
<stop stop-color="#96CFD9"/>
<stop offset="0.78" stop-color="#D6EEF3"/>
<stop offset="1" stop-color="#96CFD9"/>
</linearGradient>
<linearGradient id="paint21_linear_26_1733" x1="193.519" y1="116.254" x2="266.398" y2="191.88" gradientUnits="userSpaceOnUse">
<stop stop-color="#2980BA"/>
<stop offset="1" stop-color="#9CBAD8"/>
</linearGradient>
<linearGradient id="paint22_linear_26_1733" x1="143.47" y1="151.773" x2="117.8" y2="176.509" gradientUnits="userSpaceOnUse">
<stop stop-color="#2980BA"/>
<stop offset="1" stop-color="#9AB8D7"/>
</linearGradient>
<linearGradient id="paint23_linear_26_1733" x1="183.987" y1="202.656" x2="128.028" y2="121.191" gradientUnits="userSpaceOnUse">
<stop stop-color="#2980BA"/>
<stop offset="1" stop-color="#9CBAD8"/>
</linearGradient>
<linearGradient id="paint24_linear_26_1733" x1="147.743" y1="200.279" x2="145.373" y2="120.158" gradientUnits="userSpaceOnUse">
<stop stop-color="#96D0DA"/>
<stop offset="0.78" stop-color="#D8EEF3"/>
<stop offset="1" stop-color="#96D0DA"/>
</linearGradient>
<linearGradient id="paint25_linear_26_1733" x1="151.248" y1="126.508" x2="132.455" y2="126.696" gradientUnits="userSpaceOnUse">
<stop stop-color="#D8EEF3"/>
<stop offset="0.28" stop-color="#D6EDF2"/>
<stop offset="0.38" stop-color="#CFEAF0"/>
<stop offset="0.46" stop-color="#C3E5EB"/>
<stop offset="0.52" stop-color="#B2DDE5"/>
<stop offset="0.57" stop-color="#9CD3DC"/>
<stop offset="0.58" stop-color="#96D0DA"/>
<stop offset="0.59" stop-color="#9AD2DC"/>
<stop offset="0.69" stop-color="#B5DEE6"/>
<stop offset="0.79" stop-color="#C9E7ED"/>
<stop offset="0.89" stop-color="#D4ECF2"/>
<stop offset="1" stop-color="#D8EEF3"/>
</linearGradient>
<linearGradient id="paint26_linear_26_1733" x1="100.514" y1="294.758" x2="73.8341" y2="294.758" gradientUnits="userSpaceOnUse">
<stop stop-color="#E9B096"/>
<stop offset="0.81" stop-color="#F2BF93"/>
</linearGradient>
<linearGradient id="paint27_linear_26_1733" x1="165.237" y1="275.99" x2="147.092" y2="295.737" gradientUnits="userSpaceOnUse">
<stop stop-color="#E9B096"/>
<stop offset="0.81" stop-color="#F2BF93"/>
</linearGradient>
<linearGradient id="paint28_linear_26_1733" x1="106.9" y1="230.363" x2="159.691" y2="282.636" gradientUnits="userSpaceOnUse">
<stop stop-color="#2980BA"/>
<stop offset="1" stop-color="#9CBAD8"/>
</linearGradient>
<linearGradient id="paint29_linear_26_1733" x1="174.753" y1="240.56" x2="85.0614" y2="240.56" gradientUnits="userSpaceOnUse">
<stop stop-color="#2980BA"/>
<stop offset="1" stop-color="#9CBAD8"/>
</linearGradient>
<linearGradient id="paint30_linear_26_1733" x1="96.9758" y1="170.951" x2="70.5261" y2="170.951" gradientUnits="userSpaceOnUse">
<stop stop-color="#94CDD8"/>
<stop offset="0.78" stop-color="#D7EEF1"/>
<stop offset="1" stop-color="#94CDD8"/>
</linearGradient>
<linearGradient id="paint31_linear_26_1733" x1="151.023" y1="156.016" x2="179.308" y2="183.712" gradientUnits="userSpaceOnUse">
<stop stop-color="#2980BA"/>
<stop offset="1" stop-color="#9CBAD8"/>
</linearGradient>
<linearGradient id="paint32_linear_26_1733" x1="175.04" y1="214.225" x2="107.601" y2="116.055" gradientUnits="userSpaceOnUse">
<stop stop-color="#2980BA"/>
<stop offset="1" stop-color="#9CBAD8"/>
</linearGradient>
<linearGradient id="paint33_linear_26_1733" x1="164.883" y1="325.708" x2="146.737" y2="305.961" gradientUnits="userSpaceOnUse">
<stop stop-color="#E9B096"/>
<stop offset="0.81" stop-color="#F2BF93"/>
</linearGradient>
<linearGradient id="paint34_linear_26_1733" x1="142.422" y1="338.712" x2="142.779" y2="318.897" gradientUnits="userSpaceOnUse">
<stop stop-color="white"/>
<stop offset="0.02" stop-color="#EFF5FA"/>
<stop offset="0.06" stop-color="#C6DDED"/>
<stop offset="0.11" stop-color="#A0C7E0"/>
<stop offset="0.17" stop-color="#80B3D6"/>
<stop offset="0.23" stop-color="#64A3CD"/>
<stop offset="0.3" stop-color="#4E96C6"/>
<stop offset="0.38" stop-color="#3D8CC1"/>
<stop offset="0.47" stop-color="#3285BD"/>
<stop offset="0.61" stop-color="#2B81BB"/>
<stop offset="1" stop-color="#2980BA"/>
</linearGradient>
<linearGradient id="paint35_linear_26_1733" x1="100.514" y1="324.779" x2="73.8342" y2="324.779" gradientUnits="userSpaceOnUse">
<stop stop-color="#E9B096"/>
<stop offset="0.81" stop-color="#F2BF93"/>
</linearGradient>
<linearGradient id="paint36_linear_26_1733" x1="95.0889" y1="331.413" x2="95.0889" y2="383.682" gradientUnits="userSpaceOnUse">
<stop stop-color="#2980BA"/>
<stop offset="0.02" stop-color="#4490C3"/>
<stop offset="0.05" stop-color="#70AAD1"/>
<stop offset="0.08" stop-color="#96C1DD"/>
<stop offset="0.11" stop-color="#B7D4E8"/>
<stop offset="0.15" stop-color="#D1E4F0"/>
<stop offset="0.19" stop-color="#E6F0F7"/>
<stop offset="0.24" stop-color="#F4F8FB"/>
<stop offset="0.29" stop-color="#FCFDFE"/>
<stop offset="0.38" stop-color="white"/>
</linearGradient>
</defs>
</svg>
